<mxfile host="app.diagrams.net" modified="2023-04-06T23:31:54.528Z" agent="5.0 (Windows NT 10.0; Win64; x64) AppleWebKit/537.36 (KHTML, like Gecko) Chrome/111.0.0.0 Safari/537.36" version="20.6.0" etag="AC2vKYYvMczisyFgH2Ac" type="github">
  <diagram id="LzgZULWQagmKs7yfNuOq" name="Página-1">
    <mxGraphModel dx="1847" dy="546" grid="1" gridSize="10" guides="1" tooltips="1" connect="1" arrows="1" fold="1" page="1" pageScale="1" pageWidth="827" pageHeight="1169" math="0" shadow="0">
      <root>
        <mxCell id="0" />
        <mxCell id="1" parent="0" />
        <mxCell id="d2J4Lb5uS6ta9GWDxKJR-2" value="Clientes" style="swimlane;whiteSpace=wrap;html=1;fillColor=#fad9d5;strokeColor=#ae4132;" vertex="1" parent="1">
          <mxGeometry x="-350" width="190" height="110" as="geometry" />
        </mxCell>
        <mxCell id="d2J4Lb5uS6ta9GWDxKJR-3" value="+ nome : string&lt;br&gt;+ endereço : string&lt;br&gt;# valor : float&lt;br&gt;# valor_imposto : float&lt;br&gt;# total : float" style="text;html=1;align=left;verticalAlign=middle;resizable=0;points=[];autosize=1;strokeColor=none;fillColor=none;" vertex="1" parent="d2J4Lb5uS6ta9GWDxKJR-2">
          <mxGeometry y="20" width="140" height="90" as="geometry" />
        </mxCell>
        <mxCell id="d2J4Lb5uS6ta9GWDxKJR-5" value="+ Pagar_Imposto(v : float) : void" style="rounded=0;whiteSpace=wrap;html=1;align=left;" vertex="1" parent="1">
          <mxGeometry x="-350" y="110" width="190" height="30" as="geometry" />
        </mxCell>
        <mxCell id="d2J4Lb5uS6ta9GWDxKJR-10" value="" style="rounded=0;whiteSpace=wrap;html=1;" vertex="1" parent="1">
          <mxGeometry x="-490" y="280" width="180" height="20" as="geometry" />
        </mxCell>
        <mxCell id="d2J4Lb5uS6ta9GWDxKJR-11" value="Pessoa_Fisica" style="swimlane;whiteSpace=wrap;html=1;fillColor=#fad9d5;strokeColor=#ae4132;" vertex="1" parent="1">
          <mxGeometry x="-490" y="200" width="180" height="80" as="geometry" />
        </mxCell>
        <mxCell id="d2J4Lb5uS6ta9GWDxKJR-12" value="+ cpf : string&lt;br&gt;+ rg : string" style="text;html=1;strokeColor=none;fillColor=none;align=left;verticalAlign=middle;whiteSpace=wrap;rounded=0;" vertex="1" parent="d2J4Lb5uS6ta9GWDxKJR-11">
          <mxGeometry x="10" y="20" width="140" height="50" as="geometry" />
        </mxCell>
        <mxCell id="d2J4Lb5uS6ta9GWDxKJR-13" value="" style="shape=flexArrow;endArrow=classic;html=1;rounded=0;width=3;endSize=4.64;entryX=0.25;entryY=1;entryDx=0;entryDy=0;" edge="1" parent="1" target="d2J4Lb5uS6ta9GWDxKJR-5">
          <mxGeometry width="50" height="50" relative="1" as="geometry">
            <mxPoint x="-360" y="200" as="sourcePoint" />
            <mxPoint x="-310" y="150" as="targetPoint" />
            <Array as="points" />
          </mxGeometry>
        </mxCell>
        <mxCell id="d2J4Lb5uS6ta9GWDxKJR-14" value="Pessoa_Juridica" style="swimlane;whiteSpace=wrap;html=1;fillColor=#fad9d5;strokeColor=#ae4132;" vertex="1" parent="1">
          <mxGeometry x="-230" y="200" width="180" height="80" as="geometry" />
        </mxCell>
        <mxCell id="d2J4Lb5uS6ta9GWDxKJR-15" value="+ cnpj : string&lt;br&gt;+ ie : string" style="text;html=1;strokeColor=none;fillColor=none;align=left;verticalAlign=middle;whiteSpace=wrap;rounded=0;" vertex="1" parent="d2J4Lb5uS6ta9GWDxKJR-14">
          <mxGeometry y="20" width="140" height="50" as="geometry" />
        </mxCell>
        <mxCell id="d2J4Lb5uS6ta9GWDxKJR-16" value="+Pagar_Imposto(v : float) : void" style="rounded=0;whiteSpace=wrap;html=1;" vertex="1" parent="1">
          <mxGeometry x="-230" y="280" width="180" height="20" as="geometry" />
        </mxCell>
        <mxCell id="d2J4Lb5uS6ta9GWDxKJR-18" value="" style="shape=flexArrow;endArrow=classic;html=1;rounded=0;width=3;endSize=4.64;entryX=0.75;entryY=1;entryDx=0;entryDy=0;exitX=0.444;exitY=0;exitDx=0;exitDy=0;exitPerimeter=0;" edge="1" parent="1" source="d2J4Lb5uS6ta9GWDxKJR-14" target="d2J4Lb5uS6ta9GWDxKJR-5">
          <mxGeometry width="50" height="50" relative="1" as="geometry">
            <mxPoint x="-160" y="190" as="sourcePoint" />
            <mxPoint x="130" y="130" as="targetPoint" />
            <Array as="points" />
          </mxGeometry>
        </mxCell>
      </root>
    </mxGraphModel>
  </diagram>
</mxfile>
